<?xml version="1.0" encoding="utf-8"?>
<!-- Generator: Adobe Illustrator 21.0.0, SVG Export Plug-In . SVG Version: 6.00 Build 0)  -->
<svg version="1.1" id="Layer_1" xmlns="http://www.w3.org/2000/svg" xmlns:xlink="http://www.w3.org/1999/xlink" x="0px" y="0px"
	 viewBox="0 0 600 300" style="enable-background:new 0 0 600 300;" xml:space="preserve">
<style type="text/css">
	.st0{fill:url(#SVGID_1_);}
	.st1{fill:url(#SVGID_2_);}
	.st2{fill:#6E00CE;}
	.st3{fill:#360063;}
	.st4{fill:url(#SVGID_3_);}
	.st5{fill:url(#SVGID_4_);}
	.st6{fill:url(#SVGID_5_);}
</style>
<g>
	<linearGradient id="SVGID_1_" gradientUnits="userSpaceOnUse" x1="516" y1="221.9976" x2="516" y2="294">
		<stop  offset="0" style="stop-color:#360063"/>
		<stop  offset="1" style="stop-color:#6E00CE"/>
	</linearGradient>
	<path class="st0" d="M552,258L552,258h-36c-19.9,0-36-16.1-36-36h-36c0,39.8,32.2,72,72,72l36,0v0c19.9,0,36-16.1,36-36H552z"/>
	<g>
		<linearGradient id="SVGID_2_" gradientUnits="userSpaceOnUse" x1="372" y1="221.9976" x2="372" y2="294">
			<stop  offset="0" style="stop-color:#360063"/>
			<stop  offset="1" style="stop-color:#6E00CE"/>
		</linearGradient>
		<path class="st1" d="M444,222c0,19.9-16.1,36-36,36l-36,0l-36,0c-19.9,0-36-16.1-36-36h-36c0,39.8,32.2,72,72,72l36,0l36,0
			c39.8,0,72-32.2,72-72H444z"/>
	</g>
	<g>
		<rect x="372" y="96" class="st2" width="180" height="36"/>
	</g>
	<g>
		<rect x="444" y="42" class="st2" width="36" height="180"/>
	</g>
	<g>
		<rect x="264" y="150" class="st3" width="36" height="72"/>
	</g>
	<g>
		<path class="st2" d="M156,6C76.5,6,12,70.5,12,150s64.5,144,144,144s144-64.5,144-144S235.5,6,156,6z M156,258
			c-59.6,0-108-48.4-108-108C48,90.4,96.4,42,156,42s108,48.4,108,108C264,209.6,215.6,258,156,258z"/>
	</g>
	<g>
		<linearGradient id="SVGID_3_" gradientUnits="userSpaceOnUse" x1="462" y1="131.9988" x2="462" y2="142.7988">
			<stop  offset="0" style="stop-color:#360063"/>
			<stop  offset="1" style="stop-color:#6E00CE"/>
		</linearGradient>
		<rect x="444" y="132" class="st4" width="36" height="10.8"/>
	</g>
	<g>
		
			<linearGradient id="SVGID_4_" gradientUnits="userSpaceOnUse" x1="455.967" y1="360.978" x2="455.967" y2="371.778" gradientTransform="matrix(-1 0 0 -1 917.967 456.9767)">
			<stop  offset="0" style="stop-color:#360063"/>
			<stop  offset="1" style="stop-color:#6E00CE"/>
		</linearGradient>
		<rect x="444" y="85.2" class="st5" width="36" height="10.8"/>
	</g>
	<path class="st2" d="M480,6c-19.9,0-36,16.1-36,36h36V6z"/>
	<path class="st2" d="M336,96c0,19.9,16.1,36,36,36V96H336z"/>
	<path class="st2" d="M588,132c0-19.9-16.1-36-36-36v36H588z"/>
	<g>
		<path class="st2" d="M408,294c39.8,0,72-32.2,72-72h-36c0,19.9-16.1,36-36,36"/>
	</g>
	<linearGradient id="SVGID_5_" gradientUnits="userSpaceOnUse" x1="336" y1="275.9976" x2="408" y2="275.9976">
		<stop  offset="0" style="stop-color:#360063;stop-opacity:0"/>
		<stop  offset="1" style="stop-color:#6E00CE"/>
	</linearGradient>
	<rect x="336" y="258" class="st6" width="72" height="36"/>
</g>
</svg>
